<?xml version="1.0" encoding="utf-8"?>
<!-- Generator: Adobe Illustrator 19.2.1, SVG Export Plug-In . SVG Version: 6.00 Build 0)  -->
<svg version="1.1" id="Layer_1" xmlns="http://www.w3.org/2000/svg" xmlns:xlink="http://www.w3.org/1999/xlink" x="0px" y="0px"
	 viewBox="0 0 47.2 55.5" style="enable-background:new 0 0 47.2 55.5;" xml:space="preserve">
<style type="text/css">
	.st0{fill:#000100;}
</style>
<g>
	<path class="st0" d="M47.2,15.8C47.2,7,42.6,0,36.7,0c-5.9,0-10.5,7-10.5,15.8c0,7.2,2.9,13.1,7.1,15.2v24.5h7V30.9
		C44.4,28.7,47.2,22.9,47.2,15.8z"/>
	<path class="st0" d="M14.7,0.6V19h0v1.5c0,1.1-0.9,1.9-2,1.9c-1.1,0-2-0.9-2-1.9v-20H7.4v20c0,1.1-0.9,1.9-2,1.9
		c-1.1,0-2-0.9-2-1.9v-20H0v22.1c0,3.8,2.3,7,5.6,8.4v24.5h7V31c3.3-1.4,5.6-4.6,5.6-8.4V0.6H14.7z"/>
</g>
</svg>
