<?xml version="1.0" encoding="utf-8"?>
<!-- Generator: Adobe Illustrator 19.2.1, SVG Export Plug-In . SVG Version: 6.00 Build 0)  -->
<svg version="1.1" id="Layer_1" xmlns="http://www.w3.org/2000/svg" xmlns:xlink="http://www.w3.org/1999/xlink" x="0px" y="0px"
	 viewBox="0 0 52.7 62.2" style="enable-background:new 0 0 52.7 62.2;" xml:space="preserve">
<style type="text/css">
	.st0{fill:#000100;}
</style>
<g>
	<path class="st0" d="M45.4,61.7l-9.2-13.8c-0.1-0.1-0.1-0.2-0.2-0.3c-0.8-1.3-1.8-1.6-2.6-1.6c-0.4,0-0.6,0.1-0.6,0.1l-1.9,0.4
		c-2.1,0.6-4.2,0.9-6.4,0.9l0,0c-7.8,0-15.1-3.9-19.4-10.4c-7.1-10.7-4.2-25.3,6.5-32.4l0.2-0.2c3.8-2.6,8.3-3.9,12.9-3.9
		c7.9,0,15.2,3.9,19.5,10.4c5.7,8.5,5.2,19.3-1.1,27.5L42,39.9c-0.1,0.1-1.3,1.6,0.1,3.5c0.1,0.1,0.1,0.2,0.2,0.3l0,0.1l9.2,13.8
		L45.4,61.7z M24.8,7.7c-3.2,0-6.3,0.9-9,2.7l-0.2,0.2c-3.6,2.4-6.1,6.1-6.9,10.3c-0.9,4.3,0,8.6,2.4,12.2c3,4.5,8.1,7.2,13.5,7.2
		c3.2,0,6.3-0.9,9-2.7l0.2-0.2c7.4-5,9.5-15,4.5-22.5C35.3,10.4,30.2,7.7,24.8,7.7z"/>
</g>
</svg>
