<?xml version="1.0" encoding="UTF-8"?>
<svg width="18px" height="15px" viewBox="0 0 18 15" version="1.1" xmlns="http://www.w3.org/2000/svg" xmlns:xlink="http://www.w3.org/1999/xlink">
    <title>icon / cash</title>
    <defs>
        <path d="M18.6767436,15.1087027 L18.695619,15.1119303 C18.7075853,15.1176918 18.7152778,15.1297746 18.7152778,15.1430556 L18.7152778,15.1430556 L18.7152778,15.8590278 C18.7152778,16.7603258 17.9846314,17.4909722 17.0833333,17.4909722 L17.0833333,17.4909722 L2.88125,17.4909722 C1.94286479,17.487923 1.18291032,16.7279685 1.17986111,15.7895833 L1.17986111,15.7895833 L1.17986111,15.1430556 C1.17986111,15.1297746 1.18755361,15.1176918 1.19951992,15.1119303 C1.21148624,15.1061687 1.22569083,15.1077378 1.23611111,15.1159722 C1.93495295,15.6871168 2.80995617,15.9987416 3.7125,15.9979167 L3.7125,15.9979167 L16.1805556,15.9979167 C17.0838638,15.9995104 17.9597756,15.6878242 18.6590278,15.1159722 C18.6694481,15.1077378 18.6836527,15.1061687 18.695619,15.1119303 Z M16.1805556,3.33332116 C16.6510952,3.3318824 17.1129252,3.46019523 17.5152778,3.70416667 C17.5861111,3.74791667 17.6541667,3.79375 17.7201389,3.84305556 C17.8519594,3.94158424 17.9740441,4.05250694 18.0847222,4.17430556 C18.1395833,4.23541667 18.1923611,4.29513889 18.2416667,4.36458333 C18.2638889,4.39583333 18.2881944,4.43125 18.3111111,4.46527778 C18.598349,4.88954356 18.7512751,5.39042494 18.7500079,5.90277778 L18.7500079,5.90277778 L18.7500079,12.0833333 L18.742826,12.2748318 C18.7094006,12.7197738 18.5599305,13.1494234 18.3076389,13.5201389 C18.2868056,13.5513889 18.2625,13.5881944 18.2381944,13.6208333 C18.1888889,13.6868056 18.1361111,13.75 18.08125,13.8111111 C17.9705719,13.9329097 17.8484872,14.0438324 17.7166667,14.1423611 C17.6506944,14.1923611 17.58125,14.2381944 17.5118056,14.28125 C17.1105314,14.5248506 16.6499826,14.6533814 16.1805556,14.6527799 L16.1805556,14.6527799 L3.7125,14.6527799 C3.24223316,14.6533455 2.78090339,14.5243173 2.37916667,14.2798611 C2.30902778,14.2361111 2.24027778,14.1902778 2.17430556,14.1409722 C2.0427048,14.0424349 1.92085136,13.9315111 1.81041667,13.8097222 C1.75486111,13.7486111 1.70277778,13.6854167 1.65347222,13.6194444 C1.63055556,13.5881944 1.60694444,13.5527778 1.58402778,13.51875 C1.29718957,13.0950718 1.14428184,12.5949764 1.14513531,12.0833333 L1.14513531,12.0833333 L1.14513531,5.90277778 L1.15212892,5.71132768 C1.18512749,5.2664836 1.33424962,4.83682607 1.58611111,4.46597222 C1.60694444,4.43472222 1.63055556,4.39791667 1.65555556,4.36527778 C1.70486111,4.29930556 1.75694444,4.23611111 1.8125,4.175 C1.9229347,4.05321112 2.04478814,3.94228728 2.17638889,3.84375 C2.24236111,3.79375 2.31180556,3.74791667 2.38125,3.70486111 C2.78252412,3.46126054 3.24307291,3.33272971 3.7125,3.33332116 L3.7125,3.33332116 Z M13.8236111,4.99930556 L6.07222222,4.99930556 C5.46458333,6.22361111 4.30555556,6.96111111 2.84722222,6.96111111 L2.84722222,6.96111111 L2.8125,6.96111111 L2.8125,11.0243056 L2.84722222,11.0243056 C4.30555556,11.0243056 5.46388889,11.7618056 6.07152778,12.9868056 L6.07152778,12.9868056 L13.8243056,12.9868056 C14.4319444,11.7625 15.5902778,11.025 17.0486111,11.025 L17.0486111,11.025 L17.0833333,11.025 L17.0833333,6.98819444 L17.0826389,6.96111111 L17.0479167,6.96111111 C15.5888889,6.96111111 14.43125,6.22361111 13.8236111,4.99930556 L13.8236111,4.99930556 Z M10,6.84027778 C11.1889463,6.84027778 12.1527778,7.80410922 12.1527778,8.99305556 C12.1527778,10.1820019 11.1889463,11.1458333 10,11.1458333 C8.81105366,11.1458333 7.84722222,10.1820019 7.84722222,8.99305556 C7.84722222,7.80410922 8.81105366,6.84027778 10,6.84027778 Z M5.41597222,8.15972222 C5.87620951,8.15972222 6.24930556,8.53281826 6.24930556,8.99305556 C6.24930556,9.45329285 5.87620951,9.82638889 5.41597222,9.82638889 C4.95573493,9.82638889 4.58263889,9.45329285 4.58263889,8.99305556 C4.58263889,8.53281826 4.95573493,8.15972222 5.41597222,8.15972222 Z M14.5742789,8.15953743 L14.6916667,8.16666667 C15.0655608,8.2159197 15.3597747,8.5101336 15.4090278,8.88402778 C15.4556549,9.23798771 15.2716279,9.58232526 14.9514343,9.74024238 C14.6312408,9.8981595 14.2460261,9.83456781 13.9935764,9.58211809 C13.7411266,9.32966837 13.6775349,8.94445366 13.8354521,8.62426011 C13.9933692,8.30406657 14.3377067,8.12003957 14.6916667,8.16666667 Z" id="path-1"></path>
    </defs>
    <g id="SERP-Landing" stroke="none" stroke-width="1" fill="none" fill-rule="evenodd">
        <g id="1280---Desktop---Orange-JE-Basis---SERP-Landing---Orange-Phase-3" transform="translate(-837.000000, -259.000000)">
            <g id="serp-listing-01-collectiononly-copy" transform="translate(338.000000, 216.000000)">
                <g id="Group-24" transform="translate(498.000000, 16.000000)">
                    <g id="icon-/-cash" transform="translate(0.000000, 24.000000)">
                        <polygon id="bounding-box" opacity="0" points="0 20 20 20 20 0 0 0"></polygon>
                        <mask id="mask-2" fill="white">
                            <use xlink:href="#path-1"></use>
                        </mask>
                        <use id="Color" fill="#5E6B77" xlink:href="#path-1"></use>
                    </g>
                </g>
            </g>
        </g>
    </g>
</svg>