<?xml version="1.0" encoding="UTF-8"?>
<svg width="20px" height="20px" viewBox="0 0 20 20" version="1.1" xmlns="http://www.w3.org/2000/svg" xmlns:xlink="http://www.w3.org/1999/xlink">
    <title>icon / food</title>
    <g id="SERP-Landing" stroke="none" stroke-width="1" fill="none" fill-rule="evenodd">
        <g id="1280---Desktop---Orange-JE-Basis---SERP-Landing---Orange-Phase-3" transform="translate(-33.000000, -182.000000)">
            <g id="Group-10" transform="translate(30.000000, 84.000000)">
                <g id="Group-7" transform="translate(0.000000, 96.000000)">
                    <g id="icon-/-food" transform="translate(1.000000, 0.000000)">
                        <polygon id="bounding-box" opacity="0" points="0 24 24 24 24 0 0 0"></polygon>
                        <path d="M12.7673,2.5642 C13.0083,2.0662 13.6073,1.8592 14.1043,2.1012 L14.1043,2.1012 L15.6293,2.8422 C15.9713,3.0082 16.1893,3.3542 16.1923,3.7332 L16.1923,3.7332 L16.2113,5.9822 L20.2173,5.9822 C20.7693,5.9822 21.2173,6.4302 21.2173,6.9822 C21.2173,7.5142 20.7993,7.9392 20.2743,7.9702 L20.2743,7.9702 L19.2913,21.0772 C19.2523,21.6002 18.8163,22.0022 18.2943,22.0022 L18.2943,22.0022 L18.2733,22.0022 L16.5403,21.9662 C15.9883,21.9542 15.5503,21.4972 15.5613,20.9452 C15.5733,20.3932 16.0483,19.9842 16.5823,19.9662 L16.5823,19.9662 L17.3673,19.9822 L18.2683,7.9822 L10.2173,7.9822 C9.6653,7.9822 9.2173,7.5342 9.2173,6.9822 C9.2173,6.4302 9.6653,5.9822 10.2173,5.9822 L10.2173,5.9822 L14.2113,5.9822 L14.1973,4.3702 L13.2303,3.9002 C12.7333,3.6592 12.5263,3.0602 12.7673,2.5642 Z M4.2966,16.9929 C4.5616,16.9929 4.8166,17.0979 5.0036,17.2859 L5.0036,17.2859 L5.9096,18.1919 C6.0666,18.3489 6.3236,18.3489 6.4806,18.1919 L6.4806,18.1919 L7.3866,17.2859 C7.5746,17.0979 7.8286,16.9929 8.0936,16.9929 L8.0936,16.9929 L12.3496,16.9929 C13.5146,16.9929 14.4616,17.9399 14.4616,19.1049 L14.4616,19.1049 L14.4616,19.8589 C14.4616,21.0239 13.5146,21.9719 12.3496,21.9719 L12.3496,21.9719 L4.1126,21.9719 C2.9476,21.9719 1.9996,21.0239 1.9996,19.8589 L1.9996,19.8589 L1.9996,19.1049 C1.9996,17.9399 2.9476,16.9929 4.1126,16.9929 L4.1126,16.9929 Z M8.2136,8.6853 C11.5816,8.6853 14.3226,11.4253 14.3226,14.7943 C14.3226,15.5263 13.7266,16.1223 12.9956,16.1223 L12.9956,16.1223 L3.4316,16.1223 C2.6996,16.1223 2.1046,15.5263 2.1046,14.7943 C2.1046,11.4253 4.8446,8.6853 8.2136,8.6853 Z M7.9936,12.9473 C7.8206,12.5413 7.3516,12.3513 6.9446,12.5233 C6.5386,12.6963 6.3486,13.1653 6.5206,13.5713 C6.6936,13.9773 7.1626,14.1673 7.5686,13.9953 C7.9756,13.8233 8.1646,13.3543 7.9936,12.9473 Z M5.8256,11.4763 C5.6526,11.0693 5.1836,10.8793 4.7766,11.0523 C4.3706,11.2243 4.1806,11.6933 4.3526,12.1003 C4.5256,12.5063 4.9946,12.6963 5.4006,12.5243 C5.8076,12.3513 5.9976,11.8823 5.8256,11.4763 Z M8.4426,10.3663 C8.2706,9.9593 7.8016,9.7693 7.3946,9.9423 C6.9886,10.1143 6.7986,10.5833 6.9706,10.9903 C7.1436,11.3963 7.6126,11.5863 8.0186,11.4143 C8.4256,11.2423 8.6156,10.7723 8.4426,10.3663 Z" id="Colour" fill="#5E6B77" fill-rule="nonzero"></path>
                    </g>
                </g>
            </g>
        </g>
    </g>
</svg>