<?xml version="1.0" encoding="UTF-8"?>
<svg width="88px" height="33px" viewBox="0 0 88 33" version="1.1" xmlns="http://www.w3.org/2000/svg" xmlns:xlink="http://www.w3.org/1999/xlink">
    <title>LL-tablet-icon</title>
    <defs>
        <polygon id="path-1" points="9.74504287 0.65344 8.45090526 1.9392 0.831536842 0.9152 0.69877733 0.65344 9.74504287 0.65344"></polygon>
        <path d="M0.0864505263,10.3781988 L2.44424211,5.48388571 L0.0864505263,0.836672088 L0.0864505263,10.3781988 L0.0864505263,10.3781988 Z M6.32627368,12.8009143 L13.9456421,13.8249143 L16.0272316,11.7568 L5.04783158,10.2802286 L6.32627368,12.8009143 Z" id="path-3"></path>
        <polygon id="path-5" points="5.49363094 8.85074286 0.258252632 3.86194286 11.3823474 2.12754286 12.1727383 0.486857143 16.5707526 0.486857143 16.5707526 2.14943727 15.3678632 4.6464 7.06348421 5.94102857 10.1158943 8.85074286 5.49363094 8.85074286"></polygon>
        <polygon id="path-7" points="4.81959937 16.4370286 0.258252632 12.0905143 11.3823474 10.3561143 16.2616737 0.227657143 17.2203221 2.11715579 17.2203221 9.02962982 15.3678632 12.8749714 7.06348421 14.1696 9.44211014 16.4370286"></polygon>
        <polygon id="path-9" points="4.11150642 15.7622857 0.258252632 12.0905143 11.3823474 10.3561143 16.2616737 0.227657143 16.5712105 0.837755102 16.5712105 10.3770582 15.3678632 12.8749714 7.06348421 14.1696 8.7342771 15.7622857 4.11150642 15.7622857"></polygon>
        <polygon id="path-11" points="0.620722105 13.0324741 1.63102105 12.8749714 5.19161053 5.48388571 2.52483158 0.227657143 0.620722105 4.18018869 0.620722105 13.0324741"></polygon>
        <polygon id="path-13" points="0.448540417 0.219611429 4.74104211 4.30994286 2.95708421 15.4093714 8.21096842 12.5824 9.48116842 4.42331429 5.07131103 0.219611429 0.448540417 0.219611429"></polygon>
        <polygon id="path-15" points="0.448444469 0.21952 4.74104211 4.30994286 3.39115614 12.7086629 7.97631079 12.7086629 8.21096842 12.5824 9.48116842 4.42331429 5.07121512 0.21952 0.448444469 0.21952"></polygon>
        <path d="M0.357157895,1.87784727 L2.90946316,4.30994286 L1.12550526,15.4093714 L6.37938947,12.5824 L7.64958947,4.42331429 L3.23934844,0.219245714 L0.357157895,0.219245714 L0.357157895,1.87784727 Z M15.4924105,12.3574083 L11.2110947,10.1677714 L13.7166947,8.72777143 L15.4924105,9.6362866 L15.4924105,12.3574083 Z M11.1231789,10.1229714 L11.1332526,10.1284571 L11.1231789,10.1229714 Z" id="path-17"></path>
        <path d="M0.0866336842,11.1832207 L0.884652632,10.7538286 L2.15485263,2.59474286 L0.0866336842,0.623210189 L0.0866336842,11.1832207 L0.0866336842,11.1832207 Z M5.71635789,8.3392 L15.5592632,13.3732571 L15.0125368,10.3734857 L8.22195789,6.8992 L5.71635789,8.3392 Z M5.62844211,8.2944 L5.63851579,8.29988571 L5.62844211,8.2944 Z" id="path-19"></path>
        <path d="M0.221621053,1.9392 L10.0645263,6.97325714 L9.5178,3.97348571 L2.72722105,0.4992 L0.221621053,1.9392 Z M0.133705263,1.8944 L0.143778947,1.89988571 L0.133705263,1.8944 Z" id="path-21"></path>
    </defs>
    <g id="SERP-Landing" stroke="none" stroke-width="1" fill="none" fill-rule="evenodd">
        <g id="1280---Desktop---Orange-JE-Basis---SERP-Landing---Orange-Phase-3" transform="translate(-1137.000000, -230.000000)">
            <g id="serp-listing-01-collectiononly-copy" transform="translate(338.000000, 216.000000)">
                <g id="LL-tablet-icon" transform="translate(799.000000, 14.000000)">
                    <g id="Group-23" transform="translate(14.652632, 13.346560)" fill="#575756">
                        <path d="M2.28233053,8.48996571 L6.19549895,8.48996571 C6.62408842,8.48996571 6.87135158,8.76242286 6.87135158,9.13910857 C6.87135158,9.50208 6.55998316,9.76173714 6.18267789,9.76173714 L1.72369895,9.76173714 C1.08539368,9.76173714 0.786846316,9.38505143 0.890330526,8.74962286 L2.13946737,1.24699429 C2.21730947,0.806308571 2.43801474,0.585051429 2.81532,0.585051429 C3.27046737,0.585051429 3.55619368,0.935222857 3.46553053,1.44173714 L2.28233053,8.48996571 Z" id="Fill-1"></path>
                        <path d="M11.3436095,4.51766857 C11.0313253,4.21961143 10.6549358,4.06418286 10.1997884,4.06418286 C9.25103053,4.06418286 8.66492526,4.58258286 8.43139895,5.63492571 C8.35264105,5.98418286 8.28853579,6.40018286 8.23633579,6.90578286 C8.11911474,7.99652571 8.83434632,8.60726857 9.82248316,8.60726857 C10.7190411,8.60726857 11.2914095,8.07515429 11.5524095,7.02281143 C11.6421568,6.62052571 11.7071779,6.20544 11.7465568,5.77755429 C11.7987568,5.24452571 11.6687147,4.81664 11.3436095,4.51766857 M12.3317463,3.57046857 C12.8903779,4.10258286 13.1376411,4.81664 13.0735358,5.73824 C13.0341568,6.23104 12.9563147,6.76315429 12.8125358,7.33458286 C12.4489674,8.99584 11.3307884,9.89184 9.88750421,9.89184 C9.00285158,9.89184 8.26289368,9.63218286 7.67770421,9.10006857 C7.09159895,8.56795429 6.84525158,7.84109714 6.91027263,6.91949714 C6.94873579,6.42578286 7.02657789,5.89366857 7.17035684,5.32315429 C7.53392526,3.66098286 8.69148316,2.77869714 10.2638937,2.77869714 C11.0835253,2.77869714 11.7731147,3.03835429 12.3317463,3.57046857" id="Fill-3"></path>
                        <path d="M17.9867463,7.65878857 C18.0902305,7.41193143 18.2852937,7.28301714 18.5591147,7.28301714 C18.9098621,7.28301714 19.1836832,7.52896 19.1836832,7.89284571 C19.1836832,7.98336 19.1562095,8.10038857 19.1177463,8.24393143 C18.9877042,8.64530286 18.7019779,9.02198857 18.2596516,9.37216 C17.8173253,9.72324571 17.2330516,9.89147429 16.4912621,9.89147429 C15.6459884,9.89147429 14.9316726,9.61993143 14.3593042,9.08690286 C13.7869358,8.55478857 13.5405884,7.81513143 13.6312516,6.86793143 C13.6834516,6.41353143 13.7612937,5.91981714 13.8785147,5.36118857 C14.2292621,3.66153143 15.3730832,2.77833143 16.9207674,2.77833143 C18.2596516,2.77833143 19.1836832,3.47958857 19.4822305,4.27136 C19.5472516,4.42770286 19.5728937,4.56941714 19.5728937,4.70016 C19.5728937,5.10244571 19.3256305,5.37490286 18.9098621,5.37490286 C18.62322,5.37490286 18.4418937,5.25787429 18.3640516,5.01101714 C18.1689884,4.37467429 17.6625568,4.06381714 16.8685674,4.06381714 C15.9582726,4.06381714 15.38682,4.58313143 15.1523779,5.60896 C15.0617147,6.01033143 14.9838726,6.45193143 14.9444937,6.93193143 C14.8400937,7.98336 15.5168621,8.60690286 16.51782,8.60690286 C17.2449568,8.60690286 17.7394832,8.29513143 17.9867463,7.65878857" id="Fill-5"></path>
                        <path d="M23.8883684,8.38646857 L24.1228105,6.93184 C23.6154632,6.69869714 23.1218526,6.58166857 22.6410632,6.58166857 C21.7957895,6.58166857 21.0805579,6.93184 21.0805579,7.69801143 C21.0805579,8.32155429 21.5869895,8.73664 22.4716421,8.73664 C23.0696526,8.73664 23.5376211,8.61961143 23.8883684,8.38646857 L23.8883684,8.38646857 Z M25.0853053,8.71012571 C25.0459263,8.95698286 24.9287053,9.15172571 24.7464632,9.26875429 C24.1365474,9.68384 23.3810211,9.89138286 22.4844632,9.89138286 C21.6391895,9.89138286 20.9761579,9.68384 20.4953684,9.25595429 C20.0145789,8.82715429 19.7810526,8.32155429 19.7810526,7.71172571 C19.7810526,7.03606857 20.0274,6.50395429 20.5091053,6.11446857 C21.0027158,5.71218286 21.6007263,5.51744 22.3150421,5.51744 C22.9918105,5.51744 23.6548421,5.64726857 24.3050526,5.90692571 L24.4085368,5.29709714 C24.5523158,4.45321143 24.0971684,3.98601143 23.1603158,3.98601143 C22.7189053,3.98601143 21.9771158,4.24566857 21.7820526,4.31058286 C21.2747053,4.42761143 20.9248737,4.15424 20.9248737,3.77846857 C20.9248737,3.51881143 21.0677368,3.31035429 21.3534632,3.16772571 C21.8351684,2.90898286 22.4844632,2.77824 23.3169158,2.77824 C24.1090737,2.77824 24.7336421,3.01229714 25.1887895,3.47949714 C25.6439368,3.93389714 25.7996211,4.58304 25.6576737,5.42692571 L25.0853053,8.71012571 Z" id="Fill-7"></path>
                        <path d="M27.8662832,1.14358857 C27.9313042,0.714788571 28.1520095,0.507245714 28.5302305,0.507245714 C28.9844621,0.507245714 29.2445463,0.858331429 29.1795253,1.33833143 L27.88002,9.19113143 C27.8140832,9.60621714 27.5805568,9.81376 27.2032516,9.81376 C26.7481042,9.81376 26.48802,9.46358857 26.5530411,8.98267429 L27.8662832,1.14358857 Z" id="Fill-9"></path>
                        <path d="M33.1750232,8.46500571 L37.1220758,8.46500571 C37.5534126,8.46500571 37.8034232,8.74020571 37.8034232,9.11963429 C37.8034232,9.48626286 37.4883916,9.74774857 37.1083389,9.74774857 L32.6108968,9.74774857 C31.9689284,9.74774857 31.6667179,9.36832 31.7720337,8.72649143 L33.0303284,1.16077714 C33.1090863,0.71552 33.3325389,0.492434286 33.7125916,0.492434286 C34.1714021,0.492434286 34.45896,0.846262857 34.3682968,1.35734857 L33.1750232,8.46500571 Z" id="Fill-11"></path>
                        <path d="M42.3535232,5.72928 C42.4844811,5.72928 42.5632389,5.66436571 42.5888811,5.54642286 C42.8123337,4.38070857 42.2088284,3.87053714 41.2518284,3.87053714 C40.1895126,3.87053714 39.6125653,4.47213714 39.3900284,5.72928 L42.3535232,5.72928 Z M39.2187758,6.78893714 L39.1803126,7.02482286 C39.0227968,8.05979429 39.6785021,8.59648 40.7930179,8.59648 C41.2774705,8.59648 41.77566,8.47853714 42.2747653,8.24265143 C42.4185442,8.17773714 42.52386,8.15030857 42.6017021,8.15030857 C42.9698495,8.15030857 43.2052074,8.41270857 43.2052074,8.76562286 C43.2052074,9.02710857 43.0486074,9.23739429 42.7463968,9.40745143 C42.1694495,9.72196571 41.5137442,9.87922286 40.7673758,9.87922286 C39.8222811,9.87922286 39.0887337,9.61682286 38.5511653,9.09385143 C38.0135968,8.55716571 37.7901442,7.84950857 37.8689021,6.97270857 C37.8817232,6.80265143 37.9742179,6.27968 38.1317337,5.38916571 C38.4843126,3.55602286 39.7435232,2.70482286 41.2518284,2.70482286 C42.8517126,2.70482286 44.2281442,3.67396571 43.8087126,5.71556571 L43.7555968,5.95145143 C43.6118179,6.51465143 43.2967863,6.78893714 42.7985968,6.78893714 L39.2187758,6.78893714 Z" id="Fill-13"></path>
                        <path d="M45.9853611,5.55876571 C45.8672242,6.10916571 45.8012874,6.55442286 45.7756453,6.89453714 C45.6575084,7.92859429 46.1950768,8.55670857 47.2308347,8.55670857 C47.7162032,8.55670857 48.2272137,8.39945143 48.7519611,8.08585143 L49.3673716,4.35465143 C48.9360347,4.11876571 48.4103716,4.00173714 47.8077821,4.00173714 C46.8242242,4.00173714 46.2216347,4.52470857 45.9853611,5.55876571 L45.9853611,5.55876571 Z M49.8655611,9.43350857 C49.5386242,11.5281371 48.4241084,12.3528229 46.6529716,12.3528229 C45.7756453,12.3528229 44.8836663,11.9999086 44.4248558,11.63328 C44.1885821,11.4632229 44.0704453,11.2666514 44.0704453,11.0179657 C44.0704453,10.7034514 44.3204558,10.4154514 44.6867716,10.4154514 C44.8186453,10.4154514 44.9624242,10.4675657 45.1327611,10.5599086 C45.6446874,10.9256229 46.1950768,11.1093943 46.7592032,11.1093943 C47.7418453,11.1093943 48.3847295,10.50688 48.5550663,9.35488 C48.0568768,9.60448 47.5321295,9.73430857 46.9680032,9.73430857 C46.1556979,9.73430857 45.5128137,9.48653714 45.0411821,8.97545143 C44.5823716,8.46528 44.3854768,7.78505143 44.4504979,6.93385143 C44.4898768,6.43648 44.5823716,5.89888 44.7005084,5.31099429 C45.0540032,3.58208 46.1556979,2.70528 47.83434,2.70528 C48.9873189,2.70528 49.9717926,3.11122286 50.4828032,3.49065143 C50.70534,3.66070857 50.7840979,3.85728 50.7447189,4.09225143 L49.8655611,9.43350857 Z" id="Fill-15"></path>
                        <path d="M55.9239663,5.72928 C56.05584,5.72928 56.1336821,5.66436571 56.16024,5.54642286 C56.3827768,4.38070857 55.7801874,3.87053714 54.8231874,3.87053714 C53.7608716,3.87053714 53.1839242,4.47213714 52.9613874,5.72928 L55.9239663,5.72928 Z M52.7901347,6.78893714 L52.7507558,7.02482286 C52.59324,8.05979429 53.2489453,8.59648 54.3634611,8.59648 C54.8488295,8.59648 55.3470189,8.47853714 55.8452084,8.24265143 C55.9889874,8.17773714 56.0952189,8.15030857 56.1730611,8.15030857 C56.5402926,8.15030857 56.7765663,8.41270857 56.7765663,8.76562286 C56.7765663,9.02710857 56.6190505,9.23739429 56.3177558,9.40745143 C55.7408084,9.72196571 55.0851032,9.87922286 54.3378189,9.87922286 C53.39364,9.87922286 52.6600926,9.61682286 52.1216084,9.09385143 C51.58404,8.55716571 51.3615032,7.84950857 51.4402611,6.97270857 C51.4530821,6.80265143 51.5446611,6.27968 51.7021768,5.38916571 C52.0556716,3.55602286 53.3139663,2.70482286 54.8231874,2.70482286 C56.4221558,2.70482286 57.7995032,3.67396571 57.3800716,5.71556571 L57.3269558,5.95145143 C57.1831768,6.51465143 56.8681453,6.78893714 56.3699558,6.78893714 L52.7901347,6.78893714 Z" id="Fill-17"></path>
                        <path d="M63.6599147,9.15876571 C63.5948937,9.59122286 63.3723568,9.79968 62.9785674,9.79968 C62.5453989,9.79968 62.2697463,9.45956571 62.3356832,8.97590857 L62.8998095,5.63693714 C63.1223463,4.34139429 62.2697463,4.04059429 61.54902,4.04059429 C60.9848937,4.04059429 60.4610621,4.18505143 59.9756937,4.47213714 L59.2018516,9.17248 C59.1368305,9.59122286 58.9005568,9.79968 58.5205042,9.79968 C58.0616937,9.79968 57.7997779,9.44676571 57.8647989,8.96219429 L58.7036621,3.96196571 C58.7430411,3.71328 58.8739989,3.53042286 59.0974516,3.38596571 C59.8703779,2.92790857 60.7229779,2.70482286 61.6543358,2.70482286 C62.5197568,2.70482286 63.2148411,2.94070857 63.7258516,3.42528 C64.2368621,3.90985143 64.4209358,4.62939429 64.26342,5.58573714 L63.6599147,9.15876571 Z" id="Fill-19"></path>
                        <path d="M66.8204874,8.16411429 C67.09614,8.43931429 67.5018347,8.58285714 68.0137611,8.58285714 C68.5247716,8.58285714 69.01014,8.43931429 69.4423926,8.13851429 L70.0449821,4.47222857 C69.7317821,4.25005714 69.0888979,4.00137143 68.4588347,4.00137143 C67.5274768,4.00137143 66.9386242,4.52525714 66.7023505,5.5584 C66.6235926,5.88662857 66.5585716,6.33097143 66.4926347,6.89417143 C66.4266979,7.45737143 66.5448347,7.87611429 66.8204874,8.16411429 M68.3544347,2.70491429 C69.0751611,2.70491429 69.7043084,2.86217143 70.2693505,3.16297143 L70.6228453,1.05645714 C70.6887821,0.624 70.9113189,0.413714286 71.2913716,0.413714286 C71.7501821,0.413714286 72.0130137,0.767542857 71.9470768,1.25211429 L70.7144242,8.66148571 C70.6622242,8.93668571 70.5834663,9.04091429 70.3206347,9.19817143 C69.6255505,9.65622857 68.8526242,9.87931429 68.0137611,9.87931429 C67.1355189,9.87931429 66.4138768,9.61691429 65.8625716,9.08022857 C65.3130979,8.54354286 65.0768242,7.79748571 65.1674874,6.82834286 C65.2068663,6.47451429 65.2856242,5.97714286 65.4174979,5.31062857 C65.7709926,3.62102857 66.8992453,2.70491429 68.3544347,2.70491429" id="Fill-21"></path>
                    </g>
                    <g id="Group-57" transform="translate(0.000000, 0.546560)">
                        <g id="Group-26" transform="translate(21.978947, 11.885714)">
                            <mask id="mask-2" fill="white">
                                <use xlink:href="#path-1"></use>
                            </mask>
                            <g id="Clip-25"></g>
                            <polygon id="Fill-24" fill="#EA5E65" mask="url(#mask-2)" points="22.1524895 0.65344 22.1524895 7.31675429 -5.40819474 3.87629714"></polygon>
                        </g>
                        <g id="Group-29" transform="translate(16.484211, 0.000000)">
                            <mask id="mask-4" fill="white">
                                <use xlink:href="#path-3"></use>
                            </mask>
                            <g id="Clip-28"></g>
                            <polygon id="Fill-27" fill="#E20613" mask="url(#mask-4)" points="3.91628211 0.227474286 27.6471347 -0.0431542857 27.6471347 12.5392457 0.0864505263 15.7621029"></polygon>
                        </g>
                        <g id="Group-32" transform="translate(0.000000, 8.228571)">
                            <mask id="mask-6" fill="white">
                                <use xlink:href="#path-5"></use>
                            </mask>
                            <g id="Clip-31"></g>
                            <polygon id="Fill-30" fill="#81CFF4" mask="url(#mask-6)" points="-10.3974158 8.85074286 -10.9890158 0.486857143 16.5707526 7.53417143"></polygon>
                        </g>
                        <g id="Group-35">
                            <mask id="mask-8" fill="white">
                                <use xlink:href="#path-7"></use>
                            </mask>
                            <g id="Clip-34"></g>
                            <polyline id="Fill-33" fill="#F6A500" mask="url(#mask-8)" points="15.1204168 -2.48228571 17.2203221 16.4370286 -2.12573053 -3.65348571"></polyline>
                        </g>
                        <g id="Group-38">
                            <mask id="mask-10" fill="white">
                                <use xlink:href="#path-9"></use>
                            </mask>
                            <g id="Clip-37"></g>
                            <polygon id="Fill-36" fill="#EB6608" mask="url(#mask-10)" points="-10.9894737 8.71497143 -0.424926316 -2.89188571 16.5712105 15.7622857"></polygon>
                        </g>
                        <g id="Group-41" transform="translate(13.736842, 0.000000)">
                            <mask id="mask-12" fill="white">
                                <use xlink:href="#path-11"></use>
                            </mask>
                            <g id="Clip-40"></g>
                            <polygon id="Fill-39" fill="#FFDC00" mask="url(#mask-12)" points="0.620722105 -5.11798857 7.60178526 -0.0427885714 2.83418526 15.7624686"></polygon>
                        </g>
                        <g id="Group-44" transform="translate(3.663158, 15.542857)">
                            <mask id="mask-14" fill="white">
                                <use xlink:href="#path-13"></use>
                            </mask>
                            <g id="Clip-43"></g>
                            <polyline id="Fill-42" fill="#2580C3" mask="url(#mask-14)" points="-12.3005179 12.7087543 12.9075032 0.219611429 1.83744 17.5828114"></polyline>
                        </g>
                        <g id="Group-47" transform="translate(3.663158, 15.542857)">
                            <mask id="mask-16" fill="white">
                                <use xlink:href="#path-15"></use>
                            </mask>
                            <g id="Clip-46"></g>
                            <polygon id="Fill-45" fill="#1DB4E9" mask="url(#mask-16)" points="12.9078695 0.21952 -12.3001516 12.7086629 -13.2397516 1.23986286"></polygon>
                        </g>
                        <g id="Group-50" transform="translate(5.494737, 15.542857)">
                            <mask id="mask-18" fill="white">
                                <use xlink:href="#path-17"></use>
                            </mask>
                            <g id="Clip-49"></g>
                            <polygon id="Fill-48" fill="#D2D700" mask="url(#mask-18)" points="15.4924105 18.2855314 0.357157895 16.6462171 11.0764737 0.219245714"></polygon>
                        </g>
                        <g id="Group-53" transform="translate(10.989474, 17.371429)">
                            <mask id="mask-20" fill="white">
                                <use xlink:href="#path-19"></use>
                            </mask>
                            <g id="Clip-52"></g>
                            <polygon id="Fill-51" fill="#93C01F" mask="url(#mask-20)" points="24.2094442 14.19712 0.0866336842 14.19712 5.58137053 -1.60905143"></polygon>
                        </g>
                        <g id="Group-56" transform="translate(16.484211, 23.771429)">
                            <mask id="mask-22" fill="white">
                                <use xlink:href="#path-21"></use>
                            </mask>
                            <g id="Clip-55"></g>
                            <polygon id="Fill-54" fill="#00A65D" mask="url(#mask-22)" points="27.6472263 7.79712 18.7146158 7.79712 0.0865421053 -8.00905143 27.6472263 -4.56859429"></polygon>
                        </g>
                    </g>
                </g>
            </g>
        </g>
    </g>
</svg>