<?xml version="1.0" encoding="UTF-8"?>
<svg width="12px" height="18px" viewBox="0 0 12 18" version="1.1" xmlns="http://www.w3.org/2000/svg" xmlns:xlink="http://www.w3.org/1999/xlink">
    <title>icon / location-pin</title>
    <defs>
        <path d="M10,1.66666667 C6.70386776,1.66666667 4.02667065,4.32891877 4.00833333,7.625 C4.00833333,11.1916667 7.78333333,16.1166667 9.34166667,17.9916667 C9.49952188,18.1950662 9.74253229,18.3140776 10,18.3140776 C10.2574677,18.3140776 10.5004781,18.1950662 10.6583333,17.9916667 C12.2166667,16.1166667 15.9916667,11.1916667 15.9916667,7.625 C15.9733294,4.32891877 13.2961322,1.66666667 10,1.66666667 Z M10,10 C8.61928813,10 7.5,8.88071187 7.5,7.5 C7.5,6.11928813 8.61928813,5 10,5 C11.3807119,5 12.5,6.11928813 12.5,7.5 C12.5,8.16304122 12.2366079,8.79892601 11.767767,9.26776695 C11.298926,9.7366079 10.6630412,10 10,10 Z" id="path-1"></path>
    </defs>
    <g id="SERP-Landing" stroke="none" stroke-width="1" fill="none" fill-rule="evenodd">
        <g id="1280---Desktop---Orange-JE-Basis---SERP-Landing---Orange-Phase-3" transform="translate(-840.000000, -281.000000)">
            <g id="serp-listing-01-collectiononly-copy" transform="translate(338.000000, 216.000000)">
                <g id="Group-24" transform="translate(498.000000, 16.000000)">
                    <g id="icon-/-location-pin" transform="translate(0.000000, 48.000000)">
                        <polygon id="bounding-box" opacity="0" points="0 20 20 20 20 0 0 0"></polygon>
                        <mask id="mask-2" fill="white">
                            <use xlink:href="#path-1"></use>
                        </mask>
                        <use id="Color" fill="#5E6B77" xlink:href="#path-1"></use>
                    </g>
                </g>
            </g>
        </g>
    </g>
</svg>