<?xml version="1.0" encoding="UTF-8"?>
<svg width="21px" height="21px" viewBox="0 0 21 21" version="1.1" xmlns="http://www.w3.org/2000/svg" xmlns:xlink="http://www.w3.org/1999/xlink">
    <title>icons-28/magnifying_glass-28</title>
    <defs>
        <path d="M23.0066667,21.3266667 L17.99,16.3333333 C20.5540679,12.9729737 20.087319,8.20279075 16.9205155,5.40318066 C13.7537121,2.60357057 8.96229391,2.72527509 5.94170559,5.68204816 C2.92111728,8.63882123 2.6971443,13.4265489 5.42850539,16.6524018 C8.15986648,19.8782548 12.9189971,20.4467401 16.3333333,17.955 L21.3383333,22.9716667 C21.5573944,23.1925314 21.8555895,23.3167647 22.1666667,23.3167647 C22.4777438,23.3167647 22.775939,23.1925314 22.995,22.9716667 C23.4505874,22.5198378 23.4557997,21.784912 23.0066667,21.3266667 Z M5.73998816,11.4566667 C5.73528175,9.11878057 7.14058306,7.00869144 9.29960868,6.11184025 C11.4586343,5.21498906 13.9453914,5.70833162 15.5985299,7.3614701 C17.2516684,9.01460858 17.7450109,11.5013657 16.8481598,13.6603913 C15.9513086,15.8194169 13.8412194,17.2247183 11.5033333,17.2200118 C9.9748023,17.2200118 8.50887591,16.6127934 7.42804125,15.5319587 C6.34720659,14.4511241 5.73998816,12.9851977 5.73998816,11.4566667 Z" id="path-1"></path>
    </defs>
    <g id="Symbols" stroke="none" stroke-width="1" fill="none" fill-rule="evenodd">
        <g id="SERP/Desktop/Search-Primary" transform="translate(-19.000000, -19.000000)">
            <g id="icons-28/magnifying_glass-28" transform="translate(16.000000, 16.000000)">
                <polygon id="bounding-box" opacity="0" points="0 28 28 28 28 0 0 0"></polygon>
                <mask id="mask-2" fill="white">
                    <use xlink:href="#path-1"></use>
                </mask>
                <use id="Color" fill="#5E6B77" fill-rule="nonzero" xlink:href="#path-1"></use>
            </g>
        </g>
    </g>
</svg>