<?xml version="1.0" encoding="UTF-8"?>
<svg width="16px" height="18px" viewBox="0 0 16 18" version="1.1" xmlns="http://www.w3.org/2000/svg" xmlns:xlink="http://www.w3.org/1999/xlink">
    <title>icon / map-pin</title>
    <g id="SERP-Landing" stroke="none" stroke-width="1" fill="none" fill-rule="evenodd">
        <g id="1280---Desktop---Orange-JE-Basis---SERP-Landing---Orange-Phase-3" transform="translate(-49.000000, -102.000000)">
            <g id="Group-10" transform="translate(30.000000, 84.000000)">
                <g id="icon-/-map-pin" transform="translate(17.000000, 17.000000)">
                    <polygon id="bounding-box" opacity="0" points="0 20 20 20 20 0 0 0"></polygon>
                    <path d="M16.1466667,10.4333333 C15.9627706,9.68949448 15.2954003,9.16687577 14.5291667,9.16666667 L14.0908333,9.16666667 C14.4953063,8.30944672 14.7250504,7.38027181 14.7666667,6.43333333 C14.7666667,3.80077603 12.6325573,1.66666667 10,1.66666667 C7.36744269,1.66666667 5.23333333,3.80077603 5.23333333,6.43333333 C5.27494957,7.38027181 5.50469373,8.30944672 5.90916667,9.16666667 L5.47083333,9.16666667 C4.70459972,9.16687577 4.03722938,9.68949448 3.85333333,10.4333333 L2.5,15.9025 C2.5,17.2450122 3.58832115,18.3333333 4.93083333,18.3333333 L15.0691667,18.3333333 C16.4116788,18.3333333 17.5,17.2450122 17.5,15.9025 L16.1466667,10.4333333 Z M8.01833333,6.07416667 C8.10416597,5.02141373 8.99814442,4.21950125 10.0540023,4.2481402 C11.1098601,4.27677915 11.9590542,5.12597321 11.9876931,6.18183106 C12.0163321,7.23768891 11.2144196,8.13166737 10.1616667,8.2175 C9.58101234,8.26084491 9.01029756,8.04898975 8.59857057,7.63726276 C8.18684358,7.22553577 7.97498842,6.65482099 8.01833333,6.07416667 L8.01833333,6.07416667 Z M15.0691667,16.6666667 L4.93083333,16.6666667 C4.56544573,16.6663583 4.25128378,16.4076983 4.18083333,16.0491667 L5.47083333,10.8333333 L6.75833333,10.8333333 C7.59190982,12.2339618 8.53956538,13.5634668 9.59166667,14.8083333 C9.69379372,14.9299848 9.84449689,15.000237 10.0033333,15.000237 C10.1621698,15.000237 10.3128729,14.9299848 10.415,14.8083333 C11.4647985,13.5632182 12.4102192,12.2337204 13.2416667,10.8333333 L14.5291667,10.8333333 L15.8191667,16.0491667 C15.7487162,16.4076983 15.4345543,16.6663583 15.0691667,16.6666667 L15.0691667,16.6666667 Z" id="Color" fill="#5E6B77" fill-rule="nonzero"></path>
                </g>
            </g>
        </g>
    </g>
</svg>