<?xml version="1.0" encoding="UTF-8"?>
<svg width="18px" height="18px" viewBox="0 0 18 18" version="1.1" xmlns="http://www.w3.org/2000/svg" xmlns:xlink="http://www.w3.org/1999/xlink">
    <title>icon / offers</title>
    <g id="SERP-Landing" stroke="none" stroke-width="1" fill="none" fill-rule="evenodd">
        <g id="1280---Desktop---Orange-JE-Basis---SERP-Landing---Orange-Phase-3" transform="translate(-837.000000, -233.000000)">
            <g id="serp-listing-01-collectiononly-copy" transform="translate(338.000000, 216.000000)">
                <g id="icon-/-offers" transform="translate(498.000000, 16.000000)">
                    <polygon id="bounding-box" opacity="0" points="0 20 20 20 20 0 0 0"></polygon>
                    <path d="M17.8416667,9.65 L10.3416667,2.15 C10.0416667,1.85 9.625,1.66666667 9.16666667,1.66666667 L3.33333333,1.66666667 C2.41666667,1.66666667 1.66666667,2.41666667 1.66666667,3.33333333 L1.66666667,9.16666667 C1.66666667,9.625 1.85,10.0416667 2.15833333,10.35 L9.65833333,17.85 C9.95833333,18.15 10.375,18.3333333 10.8333333,18.3333333 C11.2916667,18.3333333 11.7083333,18.15 12.0083333,17.8416667 L17.8416667,12.0083333 C18.15,11.7083333 18.3333333,11.2916667 18.3333333,10.8333333 C18.3333333,10.375 18.1416667,9.95 17.8416667,9.65 Z M4.58333333,5.83333333 C3.89166667,5.83333333 3.33333333,5.275 3.33333333,4.58333333 C3.33333333,3.89166667 3.89166667,3.33333333 4.58333333,3.33333333 C5.275,3.33333333 5.83333333,3.89166667 5.83333333,4.58333333 C5.83333333,5.275 5.275,5.83333333 4.58333333,5.83333333 Z" id="Color" fill="#CD4900" fill-rule="nonzero"></path>
                </g>
            </g>
        </g>
    </g>
</svg>