<?xml version="1.0" encoding="UTF-8"?>
<svg width="20px" height="10px" viewBox="0 0 20 10" version="1.1" xmlns="http://www.w3.org/2000/svg" xmlns:xlink="http://www.w3.org/1999/xlink">
    <title>icons-24/sort-24</title>
    <g id="Symbols" stroke="none" stroke-width="1" fill="none" fill-rule="evenodd">
        <g id="SERP/Desktop/Results-and-sort" transform="translate(-880.000000, -23.000000)">
            <g transform="translate(0.000000, 16.000000)" id="Sort">
                <g transform="translate(730.000000, 0.000000)">
                    <g id="icons-24/sort-24" transform="translate(148.000000, 0.000000)">
                        <polygon id="bounding-box" opacity="0" points="0 24 24 24 24 0 0 0"></polygon>
                        <path d="M17.9899,7.0178 C18.5429,7.0178 18.9899,7.4658 18.9899,8.0178 L18.9899,8.0178 L18.9899,13.5918 L20.0919,12.4898 C20.4829,12.0988 21.1149,12.0988 21.5059,12.4898 C21.8969,12.8808 21.8969,13.5138 21.5059,13.9038 L21.5059,13.9038 L18.6979,16.7108 C18.6059,16.8038 18.4949,16.8768 18.3719,16.9278 C18.2499,16.9788 18.1199,17.0048 17.9899,17.0048 C17.8599,17.0048 17.7309,16.9788 17.6089,16.9278 C17.4849,16.8768 17.3749,16.8038 17.2819,16.7108 L17.2819,16.7108 L14.4759,13.9038 C14.0849,13.5128 14.0849,12.8798 14.4759,12.4898 C14.8659,12.0988 15.4989,12.0988 15.8899,12.4898 L15.8899,12.4898 L16.9899,13.5908 L16.9899,8.0178 C16.9899,7.4658 17.4379,7.0178 17.9899,7.0178 Z M8.9766,14.9829 C9.5296,14.9829 9.9766,15.4309 9.9766,15.9829 C9.9766,16.5349 9.5296,16.9829 8.9766,16.9829 L8.9766,16.9829 L2.9996,16.9829 C2.4476,16.9829 1.9996,16.5349 1.9996,15.9829 C1.9996,15.4309 2.4476,14.9829 2.9996,14.9829 L2.9996,14.9829 Z M10.9766,11.0269 C11.5296,11.0269 11.9766,11.4749 11.9766,12.0269 C11.9766,12.5789 11.5296,13.0269 10.9766,13.0269 L10.9766,13.0269 L2.9996,13.0269 C2.4476,13.0269 1.9996,12.5789 1.9996,12.0269 C1.9996,11.4749 2.4476,11.0269 2.9996,11.0269 L2.9996,11.0269 Z M12.9766,7 C13.5296,7 13.9766,7.448 13.9766,8 C13.9766,8.552 13.5296,9 12.9766,9 L12.9766,9 L2.9996,9 C2.4476,9 1.9996,8.552 1.9996,8 C1.9996,7.448 2.4476,7 2.9996,7 L2.9996,7 Z" id="Colour" fill="#125FCA" fill-rule="nonzero"></path>
                    </g>
                </g>
            </g>
        </g>
    </g>
</svg>