<?xml version="1.0" encoding="UTF-8"?>
<svg width="12px" height="11px" viewBox="0 0 12 11" version="1.1" xmlns="http://www.w3.org/2000/svg" xmlns:xlink="http://www.w3.org/1999/xlink">
    <title>icons-16/star/star_filled-16 copy 5</title>
    <defs>
        <path d="M7,3.39986111 L7.83465278,5.36958333 L8.04076389,5.85569444 L8.56673611,5.90041667 L10.6978472,6.08125 L9.07763889,7.48611111 L8.67854167,7.83173611 L8.79861111,8.34458333 L9.28472222,10.4295139 L7.45208333,9.32361111 L7,9.05041667 L6.54791667,9.32361111 L4.71527778,10.4295139 L5.20138889,8.34458333 L5.32145833,7.83027778 L4.92236111,7.48611111 L3.30215278,6.08125 L5.43326389,5.90041667 L5.95923611,5.85569444 L6.16486111,5.36958333 L7,3.39986111 L7,3.39986111 Z M7,1.79569444 C6.83662863,1.79372863 6.68837102,1.89098583 6.62520833,2.04166667 L5.36131944,5.02784722 L2.12527778,5.3025 C1.96212208,5.31613757 1.82303439,5.42624004 1.77231182,5.58190952 C1.72158925,5.73757899 1.76911409,5.90848637 1.89291667,6.015625 L4.35118056,8.14527778 L3.61131944,11.3108333 C3.57300285,11.4704469 3.63459311,11.6374267 3.7673779,11.7339298 C3.90016269,11.8304328 4.07800038,11.8374603 4.21798611,11.7517361 L7,10.0727083 L9.78201389,11.7517361 C9.92199962,11.8374603 10.0998373,11.8304328 10.2326221,11.7339298 C10.3654069,11.6374267 10.4269971,11.4704469 10.3886806,11.3108333 L9.65027778,8.14576389 L12.1090278,6.01611111 C12.2328304,5.90897248 12.2803552,5.73806511 12.2296326,5.58239563 C12.1789101,5.42672615 12.0398224,5.31662368 11.8766667,5.30298611 L8.640625,5.02833333 L7.37479167,2.04166667 C7.31223779,1.89022281 7.16384562,1.79206457 7,1.79372863 L7,1.79569444 Z" id="path-1"></path>
    </defs>
    <g id="Symbols" stroke="none" stroke-width="1" fill="none" fill-rule="evenodd">
        <g id="components/restaurant-rating-review" transform="translate(-75.000000, 0.000000)">
            <g id="restaurant-rating" transform="translate(-1.000000, -5.000000)">
                <g id="icons-16/star/star_filled-16-copy-5" transform="translate(75.000000, 4.000000)">
                    <polygon id="bounding-box" opacity="0" points="0 14 14 14 14 0 0 0"></polygon>
                    <mask id="mask-2" fill="white">
                        <use xlink:href="#path-1"></use>
                    </mask>
                    <use id="Color" fill="#F36D00" xlink:href="#path-1"></use>
                </g>
            </g>
        </g>
    </g>
</svg>