<?xml version="1.0" encoding="UTF-8"?>
<svg width="12px" height="11px" viewBox="0 0 12 11" version="1.1" xmlns="http://www.w3.org/2000/svg" xmlns:xlink="http://www.w3.org/1999/xlink">
    <title>icons-16/star/star_filled-16</title>
    <defs>
        <path d="M7,10.0727083 L9.78201389,11.7517361 C9.92209921,11.8364221 10.0992938,11.8289118 10.2317109,11.732676 C10.364128,11.6364402 10.4259789,11.4702211 10.3886806,11.3108333 L9.65027778,8.14576389 L12.1090278,6.01611111 C12.2328304,5.90897248 12.2803552,5.73806511 12.2296326,5.58239563 C12.1789101,5.42672615 12.0398224,5.31662368 11.8766667,5.30298611 L8.640625,5.02833333 L7.37479167,2.04166667 C7.31114819,1.89104299 7.16351754,1.79315351 7,1.79315351 C6.83648246,1.79315351 6.68885181,1.89104299 6.62520833,2.04166667 L5.36131944,5.02784722 L2.12527778,5.3025 C1.96212208,5.31613757 1.82303439,5.42624004 1.77231182,5.58190952 C1.72158925,5.73757899 1.76911409,5.90848637 1.89291667,6.015625 L4.35118056,8.14527778 L3.61131944,11.3108333 C3.57402108,11.4702211 3.63587201,11.6364402 3.76828908,11.732676 C3.90070616,11.8289118 4.07790079,11.8364221 4.21798611,11.7517361 L7,10.0727083 Z" id="path-1"></path>
    </defs>
    <g id="Symbols" stroke="none" stroke-width="1" fill="none" fill-rule="evenodd">
        <g id="restaurant-rating" transform="translate(-1.000000, -5.000000)">
            <g id="icons-16/star/star_filled-16-copy-2" transform="translate(0.000000, 4.000000)">
                <polygon id="bounding-box" opacity="0" points="0 14 14 14 14 0 0 0"></polygon>
                <mask id="mask-2" fill="white">
                    <use xlink:href="#path-1"></use>
                </mask>
                <use id="Color" fill="#F36D00" xlink:href="#path-1"></use>
            </g>
        </g>
    </g>
</svg>