<?xml version="1.0" encoding="UTF-8"?>
<svg width="24px" height="24px" viewBox="0 0 24 24" version="1.1" xmlns="http://www.w3.org/2000/svg" xmlns:xlink="http://www.w3.org/1999/xlink">
    <title>icons-28/person-28</title>
    <g id="Symbols" stroke="none" stroke-width="1" fill="none" fill-rule="evenodd">
        <g id="components/header/white/header-white-1272/loggedIn" transform="translate(-1078.000000, -25.000000)">
            <g id="CTAs" transform="translate(1076.000000, 22.818182)">
                <g id="icons-28/person-28" transform="translate(0.000000, 0.181818)">
                    <polygon id="bounding-box" opacity="0" points="0 28 28 28 28 0 0 0"></polygon>
                    <path d="M14,2.28433333 C20.4433221,2.28433333 25.6666667,7.50767792 25.6666667,13.951 C25.6666667,20.3943221 20.4433221,25.6176667 14,25.6176667 C7.55667792,25.6176667 2.33333333,20.3943221 2.33333333,13.951 C2.33333333,7.50767792 7.55667792,2.28433333 14,2.28433333 Z M19.5055,16.3181667 C17.7891751,15.4094973 15.8573077,14.9867374 13.9183333,15.0955 C12.0526041,15.0305786 10.2003358,15.4340827 8.53066667,16.2691667 C7.95259912,16.6399025 7.50696813,17.184381 7.25783333,17.8243333 C8.64111857,20.2385699 11.2097554,21.728849 13.992202,21.7315023 C16.7746486,21.7341484 19.3461191,20.2487643 20.734,17.8348333 L20.734,17.8348333 L20.6453884,17.6320136 C20.3914555,17.1005297 19.998112,16.6460614 19.5055,16.3181667 Z M14,6.65 C12.0670034,6.65 10.5,8.21700338 10.5,10.15 C10.5,12.0829966 12.0670034,13.65 14,13.65 C15.9329966,13.65 17.5,12.0829966 17.5,10.15 C17.5,8.21700338 15.9329966,6.65 14,6.65 Z" id="Color" fill="#125FCA" fill-rule="nonzero"></path>
                </g>
            </g>
        </g>
    </g>
</svg>